<svg viewBox="0 0 143 47" fill="#007bff" xmlns="http://www.w3.org/2000/svg"><path d="M48.2237 14.6523C44.723 14.6523 41.5365 16.0198 39.1623 18.2499C38.2033 17.1489 37.0581 16.1998 35.757 15.4541L32.0188 22.0345C33.6481 22.9672 34.7142 24.6456 34.8911 26.5017V39.5876H42.4326V28.0001H42.4722C42.4722 24.8163 45.0512 22.2262 48.2214 22.2262H52.3879V14.6523H48.2237Z" fill="#007bff"/><path d="M131.394 34.1246H111.479C105.081 34.1246 99.8738 28.8954 99.8738 22.4693C99.8738 16.0432 105.081 10.814 111.479 10.814H131.394C137.793 10.814 143 16.0432 143 22.4693C143 28.8954 137.793 34.1246 131.394 34.1246ZM111.479 18.3902C109.24 18.3902 107.418 20.2205 107.418 22.4693C107.418 24.7181 109.24 26.5484 111.479 26.5484H131.394C133.634 26.5484 135.456 24.7181 135.456 22.4693C135.456 20.2205 133.634 18.3902 131.394 18.3902H111.479Z" fill="#007bff"/><path d="M18.1159 10.7413H14.699C13.1813 10.7413 11.7336 11.0382 10.4022 11.5735V0H2.86065V23.4579C2.64418 25.2602 1.5921 26.8802 0 27.7919L3.73817 34.3722C5.11612 33.5821 6.31718 32.5629 7.31107 31.3801C9.31981 33.0491 11.8942 34.0543 14.699 34.0543H18.1159C24.5146 34.0543 29.7215 28.8251 29.7215 22.399C29.7191 15.9706 24.5146 10.7413 18.1159 10.7413ZM18.1159 26.4758H14.699C12.4598 26.4758 10.6372 24.6454 10.6372 22.3966C10.6372 20.1479 12.4598 18.3175 14.699 18.3175H18.1159C20.3551 18.3175 22.1776 20.1479 22.1776 22.3966C22.1776 24.6454 20.3551 26.4758 18.1159 26.4758Z" fill="#007bff"/><path d="M73.6205 3.1626H65.4575C60.076 3.1626 55.6978 7.55964 55.6978 12.9642C55.6978 12.9806 55.6978 12.9946 55.6978 13.0086V20.6713C55.6978 28.0324 61.6611 34.0191 68.9885 34.0191V26.4452C66.484 26.4452 64.3495 24.8276 63.5628 22.5788C64.175 22.7003 64.8081 22.7658 65.4552 22.7658H73.6182C78.9996 22.7658 83.3779 18.3688 83.3779 12.9642C83.3802 7.55964 79.002 3.1626 73.6205 3.1626ZM73.6205 15.1919H65.4575C64.2634 15.1919 63.2532 14.1844 63.2416 12.9876V12.9432C63.2532 11.7463 64.2634 10.7388 65.4575 10.7388H73.6205C74.8215 10.7388 75.8387 11.758 75.8387 12.9665C75.8364 14.1727 74.8215 15.1919 73.6205 15.1919Z" fill="#007bff"/><path d="M100.146 47C92.9911 47 87.1697 41.1536 87.1697 33.9678V0H94.7112V33.9655C94.7112 36.9763 97.1482 39.4238 100.146 39.4238V47Z" fill="#007bff"/></svg>