<svg width="127" height="124" viewBox="0 0 127 124" fill="none" xmlns="http://www.w3.org/2000/svg">
<g clip-path="url(#clip0_889_2113)">
<path d="M49.1616 121.892C48.6276 120.471 48.092 119.044 47.5548 117.61L47.9553 117.717C47.4565 114.6 45.2407 112.073 43.4708 109.444C41.701 106.815 40.2981 103.457 41.5931 100.57C42.008 99.6509 42.6699 98.8551 43.0728 97.9315C43.2912 97.3873 43.4644 96.8266 43.5907 96.2547C44.0296 94.4831 44.4709 92.7021 44.6147 90.8856C44.6963 89.8933 44.6867 88.8938 44.8306 87.9086C45.1519 85.7179 46.2143 83.7095 46.9529 81.6182C47.9373 78.8236 48.345 75.8625 48.152 72.9098C48.153 72.9271 48.153 72.9445 48.152 72.9619V72.6635L48.1664 72.9003C48.2387 72.3611 48.262 71.8166 48.2359 71.2733L48.1688 68.0665C48.1304 66.2618 48.0872 64.424 47.4877 62.7211C47.1879 61.8685 46.4781 61.1627 46.8306 60.3291L46.7419 60.1609C45.7443 59.647 44.8809 59.2136 43.761 59.0833C43.2454 59.0265 42.7082 59.0075 42.2382 58.792C41.1638 58.3018 40.7993 57.0087 40.5379 55.8671C40.4571 55.6099 40.4464 55.3363 40.5068 55.0737C40.5819 54.898 40.6892 54.7374 40.8233 54.6L42.454 52.6888C42.6816 52.462 42.8467 52.1815 42.9337 51.8741C43.0656 51.2085 42.4756 50.6354 42.2814 49.9794C42.0703 49.2689 42.3437 48.5181 42.7322 47.8905C43.1207 47.2629 43.6195 46.7063 43.9313 46.0432C44.209 45.3837 44.3844 44.6867 44.4517 43.9756C44.7896 41.512 44.9435 39.0272 44.9121 36.5413C44.8699 35.9986 44.9243 35.4527 45.0728 34.9285C45.6555 33.2706 47.8115 32.8893 49.2 31.8022C49.9578 31.2101 50.495 30.3812 51.1832 29.7181C52.2648 28.6618 53.6869 28.0176 55.1137 27.4942C56.2744 27.0703 57.4831 26.7079 58.7109 26.7197C61.0443 26.7458 62.8717 27.975 65.1163 27.3403C69.3601 26.9692 73.5974 28.1184 77.0542 30.5778C78.5962 31.6814 79.9487 33.029 81.4907 34.1303C83.5703 35.6119 85.9544 36.6234 88.4741 37.0931C89.913 37.3584 91.4933 37.51 92.4885 38.5544C93.3902 39.5018 93.5293 40.9062 94.0665 42.0904C94.3063 42.6493 94.666 43.1751 94.7859 43.7719C95.0593 45.0106 94.3591 46.235 94.1409 47.4855C93.7907 49.4939 94.6972 51.4833 95.5797 53.3235L95.6996 53.2098C95.2536 55.5 96.316 57.7949 97.4814 59.8246C98.6469 61.8543 99.9779 63.9124 100.134 66.2381C100.167 66.7473 100.122 67.3157 99.7525 67.671C99.3832 68.0262 98.9107 68.0547 98.4455 68.0784C96.5941 68.1731 94.527 67.8581 93.3567 66.4418C92.2487 65.1013 92.2415 63.1261 91.1984 61.743C90.3998 60.6867 89.0832 60.0851 88.3086 59.0194C87.7283 58.2165 87.5052 57.2171 87.0112 56.3573C86.5172 55.4976 85.5508 54.7445 84.5915 55.0121C84.5292 58.1644 88.4045 60.3741 88.335 63.524C88.3182 64.2653 88.076 64.99 88.0952 65.7313C88.1407 67.2968 89.3134 68.5615 90.1983 69.8593C91.0707 71.1407 91.7034 72.5661 92.0665 74.0679C92.172 74.5013 92.2607 74.9584 92.5461 75.3042C93.1121 75.991 94.1624 75.9508 95.0593 75.9294C98.5486 75.8418 101.944 76.9313 105.259 78.0065C107.088 78.601 108.995 79.2428 110.331 80.6117C111.419 81.7248 112.009 83.2169 112.863 84.5124C114.542 87.082 117.132 88.9009 119.208 91.1603C119.396 91.3664 119.58 91.5748 119.76 91.788C124.522 82.8231 127.007 72.8495 127 62.7259C127 28.091 98.5702 0.0141602 63.5 0.0141602C28.4298 0.0141602 0 28.0792 0 62.7259C0 92.785 21.4153 117.909 50.0009 124.014C49.694 123.311 49.4374 122.598 49.1616 121.892Z" fill="#343A40"/>
<path d="M84.1167 37.7681C85.2587 39.4674 86.2017 41.2892 86.9273 43.1987C87.137 43.6841 87.265 44.2001 87.3062 44.7263C87.323 45.2781 87.1671 45.8276 87.1911 46.3841C87.2199 47.052 87.5149 47.6796 87.6899 48.3262C88.0832 49.7614 87.8986 51.2795 87.9441 52.7645C87.9897 54.2494 88.3398 55.8599 89.5029 56.8025C89.8554 55.9546 89.7763 55.0026 89.7427 54.086C89.6743 51.4098 90.1135 48.7445 91.0377 46.2278C91.3447 45.3894 91.7044 44.4516 91.3279 43.6416C91.0137 42.9713 90.2847 42.6066 89.6132 42.2821C87.8194 41.4153 85.9777 40.4088 84.9273 38.7296" fill="#343A40"/>
<path d="M47.2095 45.9746C47.1975 46.1949 46.3846 48.2885 46.3366 48.5064C46.1328 49.4158 45.5596 50.2187 45.3774 51.1329C45.1759 52.1181 45.4373 53.1413 45.3486 54.1431C45.291 54.8181 45.0704 55.486 45.1303 56.1609C45.1903 56.8359 45.5572 57.5156 45.9145 58.1338C46.5285 59.1995 47.2191 60.334 48.3558 60.8219C49.1472 61.1605 50.0345 61.1369 50.905 61.1392C52.761 61.1429 54.6133 61.3014 56.4423 61.6129C57.328 61.7613 58.2073 61.9468 59.0803 62.1695C59.8453 62.3637 60.7014 62.8018 61.5024 62.6905C62.4113 62.6905 63.3873 62.7402 64.2242 62.6052C64.464 60.99 64.759 58.9817 65.0012 57.3664C65.0708 56.711 65.0636 56.0498 64.9796 55.396C64.8813 54.9862 62.6655 52.2413 62.4113 51.905C60.1882 48.9445 59.6438 49.3424 57.2241 46.5454" fill="#343A40"/>
<path d="M51.7323 38.5923L50.8978 38.912C52.3007 38.4147 53.8355 38.9807 55.2144 39.5396L57.4183 40.4349C57.8269 40.562 58.1953 40.7913 58.4878 41.1004C58.735 41.4798 58.8673 41.921 58.8691 42.3722C59.0082 43.8216 58.9603 45.5197 57.7948 46.4126C56.9267 47.0781 55.7276 47.0568 54.6652 47.3339C54.1304 47.476 53.6172 47.6986 53.0753 47.8076C50.9553 48.2599 49.0344 47.1397 47.219 45.9674C47.2886 44.6387 46.8114 43.2556 47.2023 41.9767C47.6555 40.5036 49.1208 39.5894 50.5596 38.9902" fill="#343A40"/>
<path d="M70.1234 41.3987C73.8319 41.3987 76.8382 39.4785 76.8382 37.1097C76.8382 34.7408 73.8319 32.8206 70.1234 32.8206C66.415 32.8206 63.4087 34.7408 63.4087 37.1097C63.4087 39.4785 66.415 41.3987 70.1234 41.3987Z" fill="#343A40"/>
<path d="M48.3942 39.3882C52.1027 39.3882 55.109 37.468 55.109 35.0992C55.109 32.7304 52.1027 30.8101 48.3942 30.8101C44.6857 30.8101 41.6794 32.7304 41.6794 35.0992C41.6794 37.468 44.6857 39.3882 48.3942 39.3882Z" fill="#343A40"/>
<path d="M54.387 35.9302C54.387 35.9302 56.833 33.9953 59.2695 34.0664C60.8835 34.1185 62.2072 35.4282 63.4926 36.6976" stroke="#343A40" stroke-miterlimit="10" stroke-linecap="round"/>
<path d="M76.2339 37.1123C76.2339 37.1123 84.2149 32.1861 88.6562 36.5628" stroke="#343A40" stroke-miterlimit="10" stroke-linecap="round"/>
<path d="M84.7617 79.205C84.8649 77.8882 87.6779 75.0959 86.6227 72.8602C85.4092 70.3023 82.4092 69.9755 79.2796 70.3236C75.517 70.7428 72.1548 72.7181 69.3706 75.1717H67.9317C65.1499 72.7181 61.7877 70.7428 58.025 70.3236C54.8955 69.9755 51.893 70.2929 50.682 72.8602C49.6268 75.0959 52.4398 77.8882 52.5429 79.205C52.6508 80.5857 51.2599 84.7919 52.0945 86.2603C54.3679 90.2605 60.675 85.8411 65.0731 82.1038C65.2386 82.3411 65.4599 82.5351 65.7181 82.6691C65.9762 82.8032 66.2635 82.8734 66.5552 82.8736H70.7471C71.0388 82.8734 71.326 82.8032 71.5842 82.6691C71.8424 82.5351 72.0637 82.3411 72.2291 82.1038C76.6273 85.8411 82.9344 90.2605 85.2102 86.2603C86.0448 84.7919 84.6538 80.5857 84.7617 79.205Z" fill="#343A40" stroke="#343A40" stroke-miterlimit="10"/>
<path d="M48.1265 42.9101C47.859 43.1931 47.6291 43.5093 47.6251 43.9133C47.6229 44.0832 47.6571 44.2517 47.7254 44.4077C47.7937 44.5638 47.8946 44.7039 48.0215 44.819C48.1197 44.9098 48.2353 44.9806 48.3615 45.0272C48.4878 45.0738 48.6221 45.0952 48.7568 45.0903C48.9125 45.0707 49.0627 45.0209 49.1988 44.9439C49.3349 44.8668 49.4541 44.764 49.5496 44.6414C49.7292 44.4372 49.8455 44.1866 49.8846 43.9192C49.9022 43.7856 49.8916 43.6499 49.8534 43.5206C49.8152 43.3913 49.7502 43.2711 49.6626 43.1677C49.481 42.9849 49.2394 42.8714 48.9808 42.8476C48.701 42.8225 48.4189 42.8396 48.1444 42.8984" fill="white"/>
<path d="M57.5209 55.8447C57.2476 55.2941 56.4544 55.8715 56.0778 55.6765C55.3419 55.2941 54.5774 55.1718 53.8377 54.8162C52.796 54.3115 51.7562 53.3251 50.6992 53.6959C50.3169 53.8298 49.9557 54.1356 49.5772 54.3039C49.2012 54.5256 48.7968 54.4461 48.4495 54.0821C48.5661 53.283 48.9694 52.8051 49.3536 52.4763C50.4995 51.4974 51.7541 51.1392 52.9912 51.4379C54.2283 51.7366 55.4042 52.6815 56.4009 54.1777C56.7581 54.7737 57.1333 55.3302 57.5209 55.8447Z" fill="white"/>
<path d="M54.6395 42.9474C54.5932 42.9088 54.5304 42.8783 54.4578 42.8591C54.3853 42.8399 54.3054 42.8327 54.2267 42.8382C54.0845 42.848 53.9469 42.8746 53.8219 42.9164C53.2801 43.0867 52.8014 43.3212 52.4149 43.6056C52.2938 43.6805 52.2076 43.7732 52.1649 43.8744C52.1464 43.9988 52.1879 44.1238 52.2845 44.2345C52.4315 44.5047 52.7049 44.744 53.0722 44.9236C53.5095 45.1012 54.0773 45.1061 54.6042 45.0784C55.0824 45.0621 55.5525 44.9977 55.995 44.8878C56.2094 44.8387 56.3973 44.7553 56.5383 44.6467C56.639 44.5416 56.6934 44.4229 56.6962 44.3017C56.6991 44.1806 56.6503 44.061 56.5546 43.9542C56.2313 43.529 55.5604 43.2618 54.9383 43.0044" fill="white"/>
</g>
<defs>
<clipPath id="clip0_889_2113">
<rect width="127" height="124" fill="white"/>
</clipPath>
</defs>
</svg>
